<?xml version="1.0" encoding="utf-8"?>
<!-- Generator: Adobe Illustrator 20.1.0, SVG Export Plug-In . SVG Version: 6.00 Build 0)  -->
<svg version="1.1" id="Calque_1" xmlns="http://www.w3.org/2000/svg" xmlns:xlink="http://www.w3.org/1999/xlink" x="0px" y="0px"
	 viewBox="0 0 137 22" style="enable-background:new 0 0 137 22;" xml:space="preserve">
<style type="text/css">
	.st0{fill:none;}
	.st1{fill:#7B217F;}
	.st2{fill:#931915;}
</style>
<line class="st0" x1="-208" y1="-410" x2="-208" y2="431.9"/>
<line class="st0" x1="-208" y1="-410" x2="-208" y2="431.9"/>
<line class="st0" x1="-208" y1="-410" x2="-208" y2="431.9"/>
<line class="st0" x1="-208" y1="-410" x2="-208" y2="431.9"/>
<line class="st0" x1="-208" y1="-410" x2="-208" y2="431.9"/>
<line class="st0" x1="-208" y1="-410" x2="-208" y2="431.9"/>
<line class="st0" x1="-208" y1="-410" x2="-208" y2="431.9"/>
<line class="st0" x1="-208" y1="-410" x2="-208" y2="431.9"/>
<line class="st0" x1="-208" y1="-410" x2="-208" y2="431.9"/>
<line class="st0" x1="-208" y1="-410" x2="-208" y2="431.9"/>
<line class="st0" x1="-208" y1="-410" x2="-208" y2="431.9"/>
<line class="st0" x1="-208" y1="-410" x2="-208" y2="431.9"/>
<line class="st0" x1="-208" y1="-410" x2="-208" y2="431.9"/>
<line class="st0" x1="-208" y1="-410" x2="-208" y2="431.9"/>
<line class="st0" x1="-208" y1="-410" x2="-208" y2="431.9"/>
<line class="st0" x1="-208" y1="-410" x2="-208" y2="431.9"/>
<line class="st0" x1="-208" y1="-410" x2="-208" y2="431.9"/>
<line class="st0" x1="-208" y1="-410" x2="-208" y2="431.9"/>
<line class="st0" x1="-208" y1="-410" x2="-208" y2="431.9"/>
<line class="st0" x1="-208" y1="-410" x2="-208" y2="431.9"/>
<path class="st1" d="M33.9,16.4c-2.4-2.8-3.6-6-3.9-9.7c-0.1-0.1,0-0.3,0-0.4c-0.3-1.6,0-3.4,0.7-4.8C31,1.1,31.4,0.6,32,0.8
	c0.7,0.1,0.3,1,0.8,1.3c0.2,0.2,0.6,0.3,0.9,0.1c0.2-0.3,0.3-0.7,0.2-1c-0.3-0.5-0.8-1-1.3-1.1C31.6,0,30.7,0,30.2,0.8
	c-0.8,1.4-1.4,2.9-1.7,4.5l-1,5l-0.4,2.6L26.9,13c-0.3-0.2-0.6-0.4-0.8-0.7c-1.4-2.2-1.5-4.9-2.5-7.3c-0.3-1-1.2-1.7-2.2-1.8
	c-1.3-0.1-2.5,0.1-3.4,0.9c-0.3,0.5-0.4,1-0.4,1.6c0.1,0.3,0.4,0.6,0.7,0.6c0.2,0,0.4-0.2,0.5-0.4c0.1-0.3,0-0.6-0.1-0.9
	c-0.1-0.3,0.1-0.5,0.2-0.6c0.8-0.4,1.9-0.7,2.8-0.2c0.9,0.5,1,1.6,1,2.6c-0.3,3.1-1.5,6.1-4.1,8.1c-2.2,1.8-5.3,2.7-8.1,1.8
	c-0.9-0.4-1.4-1.3-1.5-2.3l0,0c0,0,0-0.1,0-0.1c0.1,0,0-0.1,0-0.2c0-0.6,0.7-0.5,0.7-1c0-0.1-0.2-0.2-0.3-0.2
	c-0.3,0-0.4,0.2-0.6,0.4c-0.6,0.6-0.4,1.7-0.2,2.5c0.4,1.1,1.6,1.9,2.8,2c3.6,0.2,6.9-0.9,9.3-3.7c1.4-1.8,2.4-3.8,2.5-6.1l0.1-0.1
	L23.6,8c0.1,1,0.3,1.9,0.5,2.8c0.6,1.3,1.1,3.1,2.8,3.5c0.2,0,0.4,0,0.5-0.2c0.9-2.2,1.1-4.6,1.4-7l0.1-0.1L29,7l0.2,1.6
	c0.3,2.9,1.6,5.4,3.2,7.7c0,0,0,0,0,0l0.3,0.4c0.1,0.1,0.2,0.3,0.3,0.4c2.3,2.8,5.2,4.5,8.7,4.8c1-0.1,1.9,0.1,2.7-0.5
	c0.2-0.4,0.4-1,0.1-1.4c-0.2-0.1-0.6-0.1-0.7,0.2c0,0.2,0,0.4,0.1,0.5c-0.1,0.3-0.4,0.5-0.7,0.6c-3.7,0.3-6.5-1.9-9-4.5l-0.1-0.1
	L33.9,16.4z"/>
<rect x="86.4" y="6.5" class="st2" width="0.9" height="7.7"/>
<polygon class="st1" points="84.7,4.5 85.1,3.8 86.3,4.3 86,5 "/>
<path class="st1" d="M41.6,8.2c0.3-0.5,0.6-0.8,1.1-0.8c0.4,0,0.8,0.3,1.1,0.8C43.9,8.5,44,9,44.1,9.5h-2.8
	C41.4,9,41.5,8.5,41.6,8.2 M45.1,10.3L45.1,10.3c0-1.2-0.2-2.2-0.6-2.9c-0.4-0.7-1-1.1-1.8-1.1c-0.8,0-1.4,0.4-1.8,1.1
	c-0.4,0.7-0.6,1.7-0.6,2.9c0,1.2,0.2,2.2,0.6,2.9c0.4,0.7,1,1.1,1.8,1.1c0.8,0,1.4-0.4,1.8-1.1c0.2-0.4,0.4-0.9,0.5-1.4h-1
	c-0.1,0.3-0.1,0.5-0.2,0.7c-0.3,0.5-0.6,0.8-1.1,0.8c-0.5,0-0.8-0.3-1.1-0.8c-0.3-0.5-0.4-1.2-0.4-2.2h2.9v0H45.1z"/>
<path class="st1" d="M80.1,7.8C80,8.1,80,8.4,79.8,8.7c-0.2,0.6-0.6,0.8-1,0.8c-0.4,0-0.8-0.3-1-0.8c-0.2-0.6-0.4-1.3-0.4-2.3
	c0-1,0.1-1.7,0.4-2.3c0.2-0.6,0.6-0.8,1-0.8c0.4,0,0.8,0.3,1,0.8c0.1,0.2,0.2,0.5,0.2,0.8h1c-0.1-0.6-0.3-1.1-0.5-1.6
	c-0.4-0.8-1-1.2-1.7-1.2c-0.7,0-1.3,0.4-1.7,1.2c-0.4,0.8-0.6,1.8-0.6,3.1c0,1.3,0.2,2.3,0.6,3.1c0.4,0.8,1,1.2,1.7,1.2
	c0.7,0,1.3-0.4,1.7-1.2c0.2-0.5,0.4-1,0.5-1.7H80.1z"/>
<path class="st2" d="M54.2,10.6l0.4-0.1c0.7-0.1,1.1-0.4,1.4-0.8c0.3-0.4,0.3-1,0.2-1.7c-0.2-1.1-0.9-1.5-2.1-1.3l-0.7,0.1
	L54.2,10.6z M54.4,16.2L52,6l2.3-0.5c0.7-0.1,1.3,0,1.8,0.3c0.5,0.4,0.8,1,1,1.8c0.2,0.7,0.2,1.3,0,1.8c-0.1,0.6-0.4,1-0.9,1.4
	l3.7,4.3l-1.4,0.3l-3.2-3.9l-1,0.2l1,4.3L54.4,16.2z"/>
<path class="st1" d="M60.8,6.6l0.4,0.1c0.7,0.1,1.2,0,1.6-0.3c0.4-0.3,0.7-0.8,0.8-1.5c0.2-1.1-0.3-1.7-1.5-1.9l-0.7-0.1L60.8,6.6z
	 M58.8,11.9l1.8-10.4l2.3,0.3c0.7,0.1,1.3,0.4,1.6,0.9c0.3,0.5,0.4,1.2,0.3,2C64.6,5.4,64.4,6,64,6.5c-0.4,0.5-0.8,0.8-1.3,1
	l1.7,5.2L63,12.5l-1.4-4.7l-1-0.1L59.9,12L58.8,11.9z"/>
<path class="st2" d="M69.2,9.6l0.3-0.2c0.6-0.3,0.9-0.7,1-1.2c0.1-0.5-0.1-1-0.5-1.7c-0.6-0.9-1.4-1.1-2.4-0.5L67,6.3L69.2,9.6z
	 M71.4,14.8l-6-8.9l2-1.2c0.6-0.4,1.2-0.5,1.8-0.3c0.6,0.2,1.1,0.6,1.6,1.3c0.4,0.6,0.6,1.1,0.7,1.7c0.1,0.6,0,1.1-0.3,1.6l5,2.9
	l-1.2,0.7L70.7,10l-0.8,0.5l2.5,3.8L71.4,14.8z"/>
<path class="st2" d="M124.2,12.7c-4.3,0-33.2,0.3-37.6,0.4c-1.8,0.1-3.9,0.1-5.6,0.5c-2,0.5,0.7,1.5,1.5,1.7
	c0.6,0.2,1.2,0.4,1.8,0.6c0.8,0.4,1.2,1.3,1.3,1.9c0,0.8-0.6,1.4-1.9,1.9C83,20.1,81.9,20,81.1,20c-2.1-0.1-4.4-0.3-6.4-0.4
	c-1.2-0.1-2.5-0.7-4.4-0.8c-1.7-0.1-3.4,0.2-5,0.6c-1.5,0.4-4.4,1.4-6,0.7c-0.9-0.4-0.3-1.3-1.9-1.7c-1.2-0.3-2.7,0.1-3.8,0.3
	c-1.2,0.2-3.2,1-4.4,0.7c-1.4-0.4-1.8-1.5-4-1.6c-1.6-0.1-3.4,1-4.9,1.2c-1.9,0.3-4.2,0.3-6.1-0.1c-1.4-0.3-2.7-1.1-2.8-1.8
	c-0.1-0.4-1.9-1.2-1.8-0.8l0,0.2c0.4,2,4.5,3.2,7.3,3.2c1.5,0,3.3-0.1,4.7-0.5c0.7-0.2,1.3-0.4,1.9-0.6c1.2-0.4,1.8-0.4,2.9,0.1
	c0.9,0.4,1.9,1.1,3,1.2c1,0.1,2.1-0.3,3-0.5c1.3-0.3,2.6-0.6,3.9-0.7c1.3-0.1,1.3,1,2,1.5c2.1,1.4,6.2-0.2,8.4-0.7
	c1.9-0.4,3.3-0.4,5.1,0.1c1.9,0.5,3.9,0.5,5.9,0.6c2.6,0.2,6.6,0.8,8-1.1c0.4-0.5,0.8-1.1,0.8-1.6c0-0.5-0.6-1.2-1-1.6
	c-0.9-1-2.9-1.1-4.2-1.8c-0.1,0,0.4-0.1,0.6-0.2c0.6-0.1,1.3-0.2,1.9-0.2c2.1-0.2,37.9-0.7,40-0.8"/>
<rect x="107.2" y="16" class="st1" width="0.8" height="0.9"/>
<path class="st2" d="M114.9,17.6c-0.4,0.1-0.8,0.2-1.1,0.2c-0.5,0-0.9-0.2-1.2-0.6c-0.3-0.4-0.5-0.9-0.5-1.5c0-0.6,0.2-1.1,0.5-1.5
	c0.3-0.3,0.8-0.5,1.3-0.5c0.3,0,0.6,0,1,0.1v0.6c-0.4-0.1-0.7-0.2-0.9-0.2c-0.3,0-0.6,0.1-0.8,0.4c-0.2,0.3-0.3,0.6-0.3,1.1
	c0,0.4,0.1,0.8,0.3,1.1c0.2,0.3,0.5,0.4,0.8,0.4c0.3,0,0.6-0.1,0.9-0.3V17.6z"/>
<path class="st2" d="M117.3,17.3c0.3,0,0.6-0.1,0.8-0.4c0.2-0.3,0.3-0.6,0.3-1.1c0-0.5-0.1-0.8-0.3-1.1c-0.2-0.3-0.4-0.4-0.8-0.4
	c-0.3,0-0.6,0.1-0.8,0.4c-0.2,0.3-0.3,0.6-0.3,1.1c0,0.5,0.1,0.8,0.3,1.1C116.7,17.2,117,17.3,117.3,17.3 M117.3,17.8
	c-0.5,0-1-0.2-1.3-0.5c-0.3-0.4-0.5-0.8-0.5-1.5s0.2-1.1,0.5-1.5c0.3-0.4,0.7-0.5,1.3-0.5c0.5,0,1,0.2,1.3,0.5
	c0.3,0.4,0.5,0.8,0.5,1.5s-0.2,1.1-0.5,1.5C118.3,17.7,117.9,17.8,117.3,17.8"/>
<path class="st2" d="M120.1,17.8V14h0.7v0.7c0.3-0.5,0.7-0.8,1.2-0.8c0.5,0,0.8,0.3,1,0.8c0.3-0.5,0.7-0.8,1.2-0.8
	c0.3,0,0.6,0.1,0.7,0.3c0.2,0.2,0.3,0.5,0.3,0.8v2.8h-0.7v-2.7c0-0.4-0.2-0.7-0.5-0.7c-0.3,0-0.7,0.3-1.1,0.8v2.6h-0.7v-2.7
	c0-0.4-0.2-0.7-0.5-0.7c-0.3,0-0.7,0.3-1.1,0.8v2.6H120.1z"/>
</svg>
